<svg width="512" height="512" viewBox="0 0 512 512" xmlns="http://www.w3.org/2000/svg">
  <defs>
    <!-- Background gradient -->
    <linearGradient id="bgGrad" x1="0" y1="0" x2="0" y2="1">
      <stop offset="0%" stop-color="#6EC3FF"/>
      <stop offset="100%" stop-color="#2A7FE8"/>
    </linearGradient>
    <!-- Pen body gradient -->
    <linearGradient id="penGrad" x1="0" y1="0" x2="0" y2="1">
      <stop offset="0%" stop-color="#3CC5B7"/>
      <stop offset="100%" stop-color="#1FA39A"/>
    </linearGradient>
    <!-- Simple inner shadow for depth -->
    <filter id="innerShadow" x="-50%" y="-50%" width="200%" height="200%">
      <feOffset dx="0" dy="2"/>
      <feGaussianBlur stdDeviation="6"/>
      <feComposite in2="SourceAlpha" operator="arithmetic" k2="-1" k3="1"/>
      <feColorMatrix type="matrix" values="0 0 0 0 0   0 0 0 0 0   0 0 0 0 0   0 0 0 0.25 0"/>
      <feComposite in2="SourceGraphic" operator="over"/>
    </filter>
    <!-- Rounded rect path for reuse -->
    <clipPath id="roundClip">
      <rect x="16" y="16" width="480" height="480" rx="104" ry="104"/>
    </clipPath>
  </defs>

  <!-- Background rounded square -->
  <rect x="16" y="16" width="480" height="480" rx="104" ry="104" fill="url(#bgGrad)" filter="url(#innerShadow)"/>

  <!-- Content area -->
  <g clip-path="url(#roundClip)">
    <!-- Pen group centered -->
    <g transform="translate(256, 220) scale(1)">
      <!-- Plunger top -->
      <g transform="translate(0, -120)">
        <rect x="-32" y="-16" width="64" height="32" rx="8" fill="#FFFFFF"/>
        <rect x="-28" y="-12" width="56" height="24" rx="6" fill="#CFE4FF"/>
        <rect x="-10" y="-28" width="20" height="12" rx="4" fill="#1E6FD9"/>
      </g>

      <!-- Pen body -->
      <g>
        <!-- Main cylindrical body -->
        <rect x="-52" y="-90" width="104" height="180" rx="28" fill="url(#penGrad)"/>
        <!-- Middle band -->
        <rect x="-52" y="-10" width="104" height="28" rx="14" fill="#148A82" opacity="0.7"/>
        <!-- White label -->
        <rect x="-42" y="-38" width="84" height="56" rx="12" fill="#FFFFFF"/>
        <!-- Label detail lines -->
        <rect x="-34" y="-28" width="68" height="10" rx="5" fill="#DCEFF4"/>
        <rect x="-34" y="-12" width="52" height="10" rx="5" fill="#DCEFF4"/>
      </g>

      <!-- Dose window (subtle) -->
      <rect x="-18" y="60" width="36" height="20" rx="6" fill="#0F6E67" opacity="0.25"/>

      <!-- Needle hub -->
      <g transform="translate(0, 96)">
        <rect x="-22" y="-6" width="44" height="18" rx="8" fill="#EAF7FB" stroke="#9ED3E6" stroke-width="2"/>
        <!-- Needle -->
        <rect x="-2" y="12" width="4" height="54" rx="2" fill="#9ED3E6"/>
        <!-- Needle tip -->
        <circle cx="0" cy="68" r="3" fill="#6ABAD3"/>
      </g>
    </g>

    <!-- Optional text (comment out if you prefer no text on the icon) -->
    <!--
    <g transform="translate(256, 418)" font-family="SF Pro, -apple-system, Segoe UI, Roboto, Helvetica, Arial, sans-serif" text-anchor="middle">
      <text x="0" y="0" font-size="34" fill="#FFFFFF" opacity="0.95" font-weight="600">Semaglutide</text>
      <text x="0" y="36" font-size="28" fill="#EAF7FB" opacity="0.9" font-weight="500">Simulator</text>
    </g>
    -->
  </g>
</svg>
